<svg version="1.2" xmlns="http://www.w3.org/2000/svg" viewBox="0 0 24 24" width="24" height="24">
	<style>
		.s0 { fill: #ffffff } 
		.s1 { fill: #000000 } 
	</style>
	<path id="Shape 2" fill-rule="evenodd" class="s0" d="m12 3.21v17.72c0 0 10.97-1.03 9.09-9.28-1.83-8.1-4.63-7.28-9.09-8.44z"/>
	<g id="Layer 1">
		<path class="s1" d="m12 22c-5.52 0-10-4.48-10-10 0-5.52 4.48-10 10-10 5.52 0 10 4.48 10 10 0 5.52-4.48 10-10 10zm0-2c4.42 0 8-3.58 8-8 0-4.42-3.58-8-8-8-4.42 0-8 3.58-8 8 0 4.42 3.58 8 8 8z"/>
		<path id="Shape 1" fill-rule="evenodd" class="s1" d="m12 2.18c0 0 0-16.72 0 1.16 0 17.87 0 17.94 0 17.94 0 0-10.06-3.28-9.47-10.03 0.56-6.38 9.47-9.07 9.47-9.07z"/>
	</g>
</svg>