<?xml version="1.0" encoding="UTF-8"?>
<svg id="Layer_2" data-name="Layer 2" xmlns="http://www.w3.org/2000/svg" viewBox="0 0 535.67 443.01">
  <defs>
    <style>
      .cls-1 {
        fill: #153256;
      }

      .cls-2 {
        fill: #ffcd34;
        stroke: #fff519;
        stroke-miterlimit: 10;
      }

      .cls-3 {
        fill: #f1f5f7;
      }
    </style>
  </defs>
  <g id="Layer_1-2" data-name="Layer 1">
    <g id="Background">
      <path id="Path_1" data-name="Path 1" class="cls-1" d="M179.28,1.75c-1.18.96-3.28,5.13-4.66,9.25-1.38,4.13-3.02,11.55-3.66,16.5-.9,7.08-.87,11.24.17,19.5.72,5.78,2.41,14.55,3.74,19.5s3.65,11.93,5.16,15.5c1.5,3.57,4.87,10.32,7.48,15,2.61,4.68,6.54,10.97,8.72,14,2.19,3.03,4.53,6.05,5.21,6.73s8.89,3.31,18.24,5.84c9.35,2.54,18.35,4.96,20,5.38s7.27,2.22,12.5,3.99,12.65,4.75,16.5,6.62,9.28,4.64,12.06,6.17c2.78,1.52,6.81,4.12,8.96,5.77s5.37,3.9,7.16,5,6.64,5.26,10.79,9.25c4.14,3.99,7.71,6.91,7.92,6.5.21-.41,1.26-2.32,2.33-4.25,1.06-1.93,3.59-6.54,5.61-10.25,3.03-5.58,3.45-7.02,2.42-8.29-.69-.85-1.81-1.53-2.5-1.5-.69.02-4.51-1.47-8.5-3.32-4.85-2.25-8.52-4.82-11.09-7.75-2.11-2.42-4.65-5.96-5.65-7.89s-2.39-6.2-3.09-9.5c-1.08-5.1-1.04-7.27.32-14.5.88-4.68,1.39-8.95,1.13-9.5s-2.59-2.03-5.17-3.28c-2.59-1.25-9.2-5.24-14.7-8.86s-13.37-8.88-17.5-11.69c-4.12-2.8-9.98-7.14-13-9.64-3.02-2.49-7.52-6.09-10-7.98-2.48-1.9-6.51-5.28-8.97-7.5-2.47-2.23-8.16-7.87-12.66-12.55-4.5-4.68-9.8-10.53-11.78-13s-6.22-7.88-9.41-12c-3.2-4.13-6.57-7.84-7.5-8.25-.92-.41-2.3-.75-3.06-.75s-2.34.79-3.52,1.75h0ZM431.18,14.96c-4.68,1.04-10.75,2.63-13.5,3.54s-9.27,3.71-14.5,6.23c-5.23,2.52-11.75,5.94-14.5,7.61s-9.27,6.3-14.5,10.29c-5.23,3.99-13.1,10.55-17.5,14.57-4.4,4.02-10.93,9.72-14.5,12.67s-8.52,7-11,8.99-7.24,6.33-10.59,9.63c-3.72,3.68-7.19,8.33-8.94,12.01-2.21,4.64-2.86,7.47-2.89,12.5-.02,5.31.44,7.23,2.53,10.5,1.41,2.2,3.88,5.13,5.48,6.51,1.6,1.38,6.28,3.54,10.41,4.79,4.12,1.26,8.18,2.66,9,3.11.82.46,2.57,4.37,3.89,8.71l2.39,7.88c-7.79,13.18-11.68,20.26-13.67,24.25l-3.61,7.25c5.52,12.01,8.17,19.1,9.45,23.5,1.29,4.4,2.64,11.15,3.01,15,.44,4.62.17,9.73-.8,15-.8,4.4-1.96,9.24-2.56,10.75-.61,1.51-1.55,2.75-2.1,2.75s-1-1.24-1-2.75c-.01-1.51-.89-8.15-1.98-14.75-1.25-7.65-3.27-15.27-5.56-21-1.97-4.95-4.77-11.02-6.21-13.5-1.43-2.48-4.72-7.43-7.3-11s-8.01-9.6-12.07-13.39c-4.06-3.78-10.53-9.12-14.38-11.85-3.85-2.74-11.95-7.44-18-10.46-6.05-3.01-15.73-7-21.5-8.86s-19.73-5.86-31-8.9c-11.27-3.03-23.65-6.44-27.5-7.58-3.85-1.13-8.35-2.42-10-2.86-1.65-.43-11.55-3.85-22-7.59-10.45-3.74-19.9-7.41-21-8.16s-2.56-1.36-3.25-1.36c-.69,0-5.19-1.83-10-4.07-4.81-2.25-12.57-6.02-17.25-8.38-4.68-2.37-13.11-7.05-18.75-10.42s-10.47-6.12-10.75-6.12-4.89-3.17-10.25-7.04-10.88-7.3-12.25-7.61c-1.38-.32-3.51-.07-4.75.54s-2.7,2.23-3.25,3.61c-.55,1.37-1,5.87-1,10s.66,10.54,1.47,14.25c.8,3.71,2.41,9.22,3.58,12.25s3.65,8.43,5.52,12c1.87,3.57,6.43,10.32,10.14,15,3.71,4.68,9.68,11.27,13.27,14.66,3.59,3.38,9.45,8.34,13.02,11,3.57,2.67,8.97,6.49,12,8.49s9.56,5.82,14.52,8.49c4.96,2.67,10.13,5.37,11.5,6,1.36.63,6.3,2.73,10.98,4.67s12.55,5.1,17.5,7.01c4.95,1.92,14.4,5.15,21,7.18,6.6,2.04,13.75,4.22,15.9,4.85,2.15.63,4.06,1.71,4.25,2.4.25.9-1.28,1.25-5.4,1.25-3.16.01-10.93-.67-17.25-1.49-6.32-.83-14.88-2.23-19-3.12-4.13-.89-12.9-3.41-19.5-5.6-6.6-2.2-17.06-6.42-23.25-9.39s-14.85-7.65-19.25-10.4-8.45-5-9-5-1,1.13-1,2.5.97,5.31,2.16,8.75,3.5,8.5,5.13,11.25c1.64,2.75,4.36,7.02,6.05,9.5s5.31,7.2,8.04,10.5c2.74,3.3,8.61,9.44,13.05,13.64,4.44,4.21,10.1,9.16,12.57,11.01,2.47,1.85,5.85,4.24,7.5,5.3s3.9,2.75,5,3.76,2.34,1.82,2.75,1.81,2.66,1.27,5,2.85c2.34,1.57,6.5,4.05,9.25,5.5,2.75,1.46,5.68,3.03,6.5,3.49s4.88,2.47,9,4.47c4.13,1.99,8.06,3.63,8.75,3.65.69.01,4.06,1.32,7.5,2.91s13.56,5.19,22.5,8,16.25,5.56,16.25,6.11-.56,1.18-1.25,1.4c-.69.21-5.07.93-9.75,1.58-6.8.96-10.33.93-17.67-.14-8.37-1.22-9.49-1.19-12.75.41-1.97.96-9.32,2.98-16.33,4.48-11.3,2.42-14.8,2.72-30.75,2.67-12.71-.04-20.65-.57-27-1.79-4.95-.95-11.47-2.15-14.5-2.67-3.03-.51-10-2.32-15.5-4-5.5-1.69-13.6-4.42-18-6.08-4.4-1.66-11.6-4.67-16-6.69-4.4-2.02-10.14-4.91-12.75-6.42s-5.2-2.75-5.75-2.75-4.71-2.31-9.25-5.13c-4.54-2.81-8.92-5.73-9.75-6.47s-3.08-1.35-5-1.36c-1.92,0-3.99.32-4.59.73-.59.4-1.54,2.08-2.09,3.73-.69,2.07-.67,3.84.09,5.7.6,1.49,2.44,3.99,4.09,5.56,1.65,1.56,4.63,4.62,6.63,6.79s6.95,6.98,11,10.68c4.05,3.71,10.51,9.33,14.34,12.5s11.76,9.14,17.61,13.27c5.86,4.13,15.87,10.43,22.26,14s11.63,6.73,11.66,7c.02.27-4.36,3.41-9.73,6.97s-10.27,6.94-10.87,7.5c-.61.57-3.31,2.82-6,5.01-2.7,2.18-8.7,7.58-13.35,12-4.65,4.41-9.22,8.92-10.15,10.02-.93,1.1-2.9,3.35-4.38,5-1.47,1.65-6.69,8.29-11.6,14.75-4.91,6.46-8.92,11.98-8.92,12.25s-1.12,2.19-2.49,4.25c-1.36,2.06-3.37,5.33-4.44,7.25-1.08,1.92-2.88,5.3-3.99,7.5-1.12,2.2-2.04,5.35-2.04,7-.01,1.65.32,3.5.73,4.1.4.61,1.74,1.62,2.98,2.25,1.24.63,3.04,1.15,4,1.16.96,0,5.58-3.76,10.25-8.35,4.67-4.59,11.65-11.03,15.5-14.29,3.85-3.27,9.7-8,13-10.51s8.93-6.56,12.5-9.01c3.57-2.45,8.97-5.81,12-7.48s6.4-3.55,7.5-4.19c1.1-.63,4.7-2.33,8-3.76,3.3-1.44,10.05-4.1,15-5.91,4.95-1.82,13.16-4.03,18.25-4.91s12.51-1.6,16.5-1.6,10.63.64,14.75,1.43c4.12.79,8.85,1.95,10.5,2.58,1.65.63,4.91,2.01,7.25,3.07s4.47,1.92,4.75,1.92,5.11,2.22,10.75,4.93c5.64,2.72,14.07,6.29,18.75,7.93,4.68,1.65,13.9,4.55,20.5,6.45,6.6,1.89,16.5,4.16,22,5.04s14.61,2.06,20.25,2.62c5.64.57,13.63,1.03,17.75,1.03s13.24-.46,20.25-1.03c7.01-.56,16.35-1.71,20.75-2.56s11.38-2.47,15.5-3.6,11.32-3.4,16-5.05c4.68-1.64,14.8-6.12,22.5-9.95,7.7-3.83,15.57-8.2,17.5-9.72s4.18-3,5-3.31c.82-.3,6.23-4.29,12-8.86,5.77-4.57,14.77-12.65,20-17.97,5.23-5.31,10.65-10.96,12.04-12.55,1.4-1.6,4.67-5.71,7.25-9.15,2.59-3.44,4.72-6.59,4.73-7s.87-1.65,1.91-2.75c1.03-1.1,5.14-7.85,9.13-15s8.79-16.82,10.68-21.5,4.99-13.23,6.89-19c1.91-5.77,4.52-16.13,5.82-23s2.63-14.41,2.96-16.75c.5-3.6.32-4.25-1.16-4.27-.96-.01-3.77-.94-6.25-2.06s-5.75-3.25-7.27-4.73c-1.53-1.48-2.76-3.25-2.75-3.94.01-.85,1.86-1.25,5.77-1.26,3.16-.01,10.02-.91,15.25-2.01s14.45-2.67,20.5-3.5,11.1-1.62,11.23-1.75-1.78-.79-4.25-1.48c-2.46-.69-7.29-1.24-10.73-1.23-3.44.01-10.75.67-16.25,1.47-5.5.79-12.02,1.45-14.5,1.46-2.48.01-5.51-.2-6.75-.46-1.55-.34-2.23-1.19-2.19-2.74.03-1.24.81-4.09,1.75-6.34.93-2.24,2.81-5.43,4.19-7.08,1.37-1.65,4.3-3.98,6.5-5.17s4.56-2.17,5.25-2.16c.69,0,1.26-.56,1.27-1.25s-.71-3.73-1.6-6.75c-.89-3.02-2.36-7.47-3.27-9.88-1.6-4.25-1.75-4.36-5.15-3.75-1.92.35-8,1.15-13.5,1.77-5.79.65-15.68.87-23.5.52-7.42-.33-18.68-1.51-25-2.62-6.32-1.1-13.98-2.72-17-3.59-3.02-.88-7.3-2.02-9.5-2.55s-5.91-1.74-8.25-2.68c-2.33-.95-4.24-2.06-4.25-2.47,0-.41,1.69-.49,3.75-.17s8.93,1.43,15.25,2.47c6.32,1.04,19.15,2.43,28.5,3.09,13.14.93,20.63.93,33,0,8.8-.65,20.05-1.89,25-2.76,4.95-.86,12.6-2.63,17-3.92,4.73-1.38,9.12-3.39,10.75-4.91,1.51-1.41,2.74-2.9,2.72-3.31s-.58-1.44-1.25-2.29c-.67-.84-2.78-2.64-4.69-4-1.91-1.35-7.08-4.49-11.49-6.96l-8.02-4.5c-3.4-17.8-3.39-18.05-1.46-20.5,1.08-1.37,4.01-5.2,6.5-8.5,2.93-3.89,5.26-8.46,6.63-13,1.59-5.3,1.99-8.82,1.67-14.5-.34-5.96-1.13-8.94-3.86-14.5-2.18-4.46-5.61-9.19-9.46-13.04-3.72-3.71-8.54-7.25-12.54-9.19-3.58-1.74-9.2-3.91-12.5-4.82-3.43-.96-10.93-1.82-17.5-2.02-8.61-.26-13.64.13-20,1.53h0Z"/>
      <path id="Path_2" data-name="Path 2" class="cls-2" d="M40.51,79.5c0,3.85.18,5.2.4,3,.21-2.2.21-5.35-.01-7s-.4.15-.39,4ZM494.14,173.02c.02.54-.52.98-1.21.98-.69-.01-3.05.97-5.25,2.16s-5.13,3.52-6.5,5.17c-1.38,1.65-3.26,4.84-4.19,7.08-.94,2.25-1.72,5.1-1.75,6.34-.04,1.55.64,2.4,2.19,2.74,1.24.26,4.27.47,6.75.46s9-.67,14.5-1.46c5.5-.8,12.81-1.46,16.25-1.47s8.39.52,11,1.17c4.26,1.07,4.49,1.27,2.25,1.9l-2.5.71c3.87.13,6.01-.05,7.25-.31,1.53-.33,2.25-1.21,2.24-2.74,0-1.24-.79-3.41-1.75-4.82s-2.64-3.48-3.74-4.59-4.02-3.38-6.5-5.06c-2.48-1.67-7.65-4-11.5-5.18s-8.24-2.13-9.75-2.12-3.89-.42-5.29-.96c-1.64-.63-2.52-.63-2.5,0h0ZM516.18,199.7c-1.92.21-8.9,1.49-15.5,2.83-6.6,1.35-14.59,2.45-17.75,2.46-3.92.01-5.76.41-5.77,1.26-.01.69,1.22,2.46,2.75,3.94,1.52,1.48,4.79,3.61,7.27,4.73,2.48,1.12,5.17,2.03,6,2.02.83,0,3.64-1.57,6.25-3.47,2.61-1.91,5.09-3.45,5.5-3.43.41.03,1.39-.68,2.17-1.58.79-.89,4.16-3,7.5-4.69,3.35-1.69,7.2-3.41,8.58-3.83,2.39-.74,2.37-.76-.5-.69-1.65.04-4.58.24-6.5.45h0ZM452.15,26.74c-.69,2.07-2.32,6.01-3.62,8.76-1.31,2.75-2.37,5.11-2.36,5.25,0,.14,1.14.02,2.51-.25l2.5-.5c-.11,18.21-.45,25.52-.82,27.99-.52,3.41-1.16,4.56-2.68,4.82-1.1.18-3.3-.26-4.88-.99-1.59-.72-3.27-2.11-3.75-3.07-.51-1.02-.43-4.14.19-7.5.75-4.06.75-7,0-10-.89-3.58-.82-4.25.44-4.25s1.24-.45-.25-3.05c-.96-1.68-3.21-4.49-4.99-6.25-1.77-1.76-3.44-2.98-3.71-2.7-.26.28.07,3.28.74,6.68.66,3.4,1.66,6.1,2.21,6s1.13,1.39,1.29,3.32c.16,1.93-.4,5.86-1.25,8.75s-1.54,6.6-1.54,8.25c0,1.98,1.1,4.22,3.25,6.58,2.28,2.51,4.82,4.01,8.5,5,2.89.78,5.25,1.87,5.25,2.42s-.45,1-1,1-1,.9-1,2,.34,2.01.75,2.02c.41,0,.59,1.25.39,2.75-.19,1.5.08,2.95.61,3.23.53.28,1.25,2.19,1.61,4.25.6,3.51.46,3.78-2.11,4.22-1.51.25-4.55.73-6.75,1.06s-8.5,1.51-14,2.62-14.5,3.4-20,5.08c-5.5,1.68-15.62,5.28-22.5,8-6.87,2.72-12.61,5.13-12.75,5.36s.54,2.45,1.5,4.94c.96,2.5,1.86,4.52,2,4.5.14,0,1.94-.74,4-1.6s7.57-2.91,12.25-4.56c4.68-1.64,15.02-4.72,23-6.84,7.98-2.13,18.77-4.57,24-5.44,5.23-.87,16.25-2.04,24.5-2.6,8.25-.57,15.79-.8,16.75-.51.96.29,2.65.3,3.75.02,1.83-.46,1.91-.86.93-4.75-.59-2.34-1.6-4.83-2.25-5.54-.84-.93-4.54-1.29-12.93-1.25l-11.75.04c0-5.72.55-7.18,1.5-7.5.83-.28,1.5-1.4,1.5-2.5s-.56-2.19-1.25-2.42-.46-.46.5-.5c1.06-.05,1.75-.87,1.75-2.08s-.65-1.98-1.75-1.96c-1.35.04-1.49-.25-.62-1.25.62-.71,2.42-1.59,4-1.97,1.58-.37,4.45-1.74,6.37-3.03,1.92-1.3,4.14-3.7,4.91-5.33,1.24-2.58,1.2-3.98-.25-10.96-.92-4.4-1.67-9.24-1.66-10.75,0-1.74.46-2.61,1.25-2.36.83.26,1.47-1.32,1.92-4.75.36-2.83,1.04-6.02,1.5-7.09.75-1.76.62-1.83-1.42-.75-1.24.66-3.61,3.11-5.28,5.45-1.66,2.34-3.01,4.81-3,5.5.02.69.37,1.08.78.87.41-.2.35,1.71-.14,4.25-.58,3.02-.5,6.63.25,10.38.63,3.16.93,6.31.68,7s-2.05,2.04-4,3-4.21,1.75-5.04,1.75-1.73-.68-2-1.5-.84-8.46-1.25-16.98l-.75-15.47c3.49.74,4.5.73,4.5.45s-1.35-3.31-3-6.75-2.95-6.79-2.9-7.44c.06-.66-.34-1.45-.89-1.76s-1.56,1.12-2.24,3.19h0ZM358.18,127c-1.1,1.1-2,3.24-2.01,4.75,0,1.51.67,3.76,1.5,5,1.15,1.71,2.48,2.25,5.51,2.25,3.52,0,4.19-.39,5.58-3.25,1.36-2.78,1.39-3.67.25-6.13-.73-1.59-2.12-3.27-3.08-3.75s-2.65-.87-3.75-.87-2.9.9-4,2Z"/>
      <path id="Path_3" data-name="Path 3" class="cls-3" d="M478.68,122.24c2.75,1.89,7.48,5.08,10.5,7.1s6.63,3.67,8,3.66c1.38,0,4.3-.48,6.5-1.06,2.33-.62,3.58-1.4,3-1.87-.55-.45-3.02-1.94-5.5-3.31-2.48-1.36-6.3-3.51-8.5-4.77-2.87-1.64-6.13-2.41-11.5-2.73l-7.5-.45,5,3.43ZM421.43,165.02c-2.88,1.34-5.05,3.35-6.73,6.23-1.47,2.53-2.49,5.87-2.52,8.25-.02,2.3.94,5.92,2.27,8.5,1.68,3.26,3.54,5.12,6.77,6.76,2.45,1.24,6.15,2.25,8.21,2.25s5.44-.85,7.5-1.87c2.06-1.03,4.6-3.17,5.64-4.75,1.03-1.59,2.16-4.96,2.5-7.5l.61-4.6c-4.45,3.81-6.74,4.7-8.75,4.68-1.79-.02-3.96-.58-4.84-1.25-.87-.67-2.11-2.23-2.75-3.47s-1.16-3.6-1.16-5.25c0-1.84.87-3.78,2.25-5.03,1.24-1.11,3.15-2.28,4.25-2.59,1.67-.48,1.76-.72.5-1.46-.82-.49-3.3-.88-5.5-.88s-5.91.9-8.25,1.98h0ZM421.18,270.89c-3.02.97-8.2,3.08-11.5,4.67-3.3,1.6-9.6,5.34-14,8.32s-11.11,8.17-14.91,11.52c-3.8,3.36-14.15,13.32-23,22.15-8.85,8.82-19.24,18.77-23.09,22.1-3.85,3.33-8.8,7.23-11,8.67-2.2,1.43-6.02,4.04-8.5,5.8-2.48,1.75-7.88,4.97-12,7.14-4.13,2.18-11.32,5.55-16,7.49-4.68,1.95-9.85,3.9-11.5,4.33s-7.73,2-13.5,3.49c-9.59,2.47-12.24,2.71-30.65,2.81-16.43.1-19.57.33-17,1.27,1.73.63,6.3,2.1,10.15,3.27,3.85,1.17,12.4,3.24,19,4.6,6.6,1.37,17.4,2.98,24,3.58,6.87.63,18.2.82,26.5.45,9.82-.43,19.34-1.61,29.5-3.63,8.25-1.65,18.15-4.07,22-5.4,3.85-1.32,11.5-4.34,17-6.72,5.5-2.37,11.12-5.1,12.5-6.06,1.37-.97,2.84-1.75,3.25-1.75.41.01,4.46-2.3,9-5.13,4.54-2.83,8.48-5.42,8.75-5.76.27-.33,3.2-2.62,6.5-5.07,3.3-2.46,7.29-5.6,8.86-7,1.57-1.39,6.38-6.13,10.68-10.53,4.31-4.4,10.18-10.92,13.06-14.5,2.87-3.57,6.83-8.97,8.8-12,1.97-3.02,4.11-6.4,4.75-7.5s2.62-4.92,4.39-8.5c2.59-5.24,3.08-7.18,2.52-10-.39-1.92-1.68-4.93-2.88-6.68-1.2-1.76-4.09-4.12-6.43-5.25-3.22-1.57-6.13-2.06-12-2.01-4.55.03-10.02.78-13.25,1.83h0Z"/>
    </g>
  </g>
</svg>